# xmcd
# 
# Track frame offsets:
#     150
#     56759
#     79057
#     115000
#     142922
#     167544
#     194019
#     214362
# 
# Disc length: 3149
# 
# Revision: 1
# Processed by: cddbd v1.5.2PL0 Copyright (c) Steve Scherf et al.
# Submitted via: BonkEnc v1.0.15
# 
DISCID=6f0c4b08
DTITLE=Bruce Springsteen z - Rockin' Live From Italy 1993 CD2
DYEAR=2008
DGENRE=Rock
TTITLE0=Light Of Day
TTITLE1=Hungry Heart
TTITLE2=Glory Days
TTITLE3=Thunder Road
TTITLE4=Born To Run
TTITLE5=My Beautyful Reward
TTITLE6=Rockin' All Over The World
TTITLE7=Working On The Highway
EXTD=
EXTT0=
EXTT1=
EXTT2=
EXTT3=
EXTT4=
EXTT5=
EXTT6=
EXTT7=
PLAYORDER=
